<svg version="1" xmlns="http://www.w3.org/2000/svg" width="682.667" height="682.667" viewBox="0 0 512.000000 512.000000"><path d="M137.5 1.7c-4.7 2.5-7.3 5.3-9 9.7-1.4 3.5-1.5 9.7-1.3 44.1l.3 40 2.4 3.8c1.2 2.1 4.2 4.8 6.5 6l4.1 2.2 118.8.3 118.8.2-.4 115.3c-.3 112.8-.3 115.4-2.4 124.2-5.5 23.5-15.4 39.5-30.7 49.5-12.8 8.2-27.6 11.6-47.1 10.7-22.2-1.1-36.5-6.7-49.1-19.3-8.3-8.2-13.9-18.5-17.6-32.4-2.9-10.8-8.5-19.5-14.8-23l-4.5-2.5h-54.7c-53.6 0-54.7 0-57.4 2.1-7.2 5.3-8.5 11-6.4 28.6 3.9 34.2 15.5 61 36.7 84.9 30.3 34.1 71.3 54.3 127.8 63.1 18.9 2.9 63.3 3.2 82.5.5 64.9-9.2 113.8-37 142.6-81.2 15.5-23.8 25.2-53.1 28.3-84.9.7-7.2 1.1-65 1.1-170 0-154.1-.1-159.2-1.9-163.3-1.2-2.6-3.5-5.2-6.2-7L499.6.5 320.1.3C157.8.1 140.2.2 137.5 1.7z"/></svg>