<svg width="278" height="108" viewBox="0 0 278 108" version="1.1" xmlns="http://www.w3.org/2000/svg" xmlns:xlink="http://www.w3.org/1999/xlink">
<title>logo. cursivo</title>
<desc>Created using Figma</desc>
<g id="Canvas" transform="translate(217 368)">
<g id="logo. cursivo">
<use xlink:href="#path0_fill" transform="translate(-217 -368)" fill="#262626"/>
</g>
</g>
<defs>
<path id="path0_fill" d="M 192.763 29.7764C 192.924 29.7874 193.083 29.8044 193.241 29.8354C 193.607 29.9054 193.964 30.0364 194.281 30.2364C 194.504 30.3774 194.706 30.5514 194.878 30.7524C 195.016 30.9144 195.137 31.0954 195.231 31.2864C 195.314 31.4524 195.379 31.6284 195.425 31.8084C 195.525 32.2054 195.525 32.6274 195.439 33.0264C 195.38 33.3014 195.279 33.5674 195.15 33.8164C 194.949 34.2034 194.681 34.5514 194.385 34.8704C 194.083 35.1964 193.752 35.4954 193.41 35.7794C 192.95 36.1604 192.469 36.5164 191.979 36.8594C 191.334 37.3104 190.674 37.7404 190.008 38.1604C 189.242 38.6444 188.467 39.1134 187.69 39.5784C 186.603 40.2294 185.511 40.8714 184.424 41.5214C 184.128 41.6994 183.833 41.8784 183.538 42.0574L 183.348 42.1754C 183.224 42.3544 183.102 42.5344 182.982 42.7164C 182.464 43.5044 181.978 44.3124 181.539 45.1474C 181.146 45.8964 180.79 46.6684 180.498 47.4624C 180.284 48.0454 180.103 48.6434 179.986 49.2534C 179.908 49.6574 179.858 50.0704 179.863 50.4824C 179.869 50.8574 179.914 51.2534 180.086 51.5924C 180.13 51.6814 180.183 51.7654 180.246 51.8424C 180.296 51.9024 180.351 51.9584 180.406 52.0144C 180.516 52.1274 180.631 52.2354 180.749 52.3394C 181.207 52.7414 181.739 53.0754 182.336 53.2214C 182.642 53.2964 182.959 53.3194 183.273 53.2974C 183.718 53.2674 184.154 53.1504 184.568 52.9894C 185.182 52.7524 185.757 52.4204 186.298 52.0484C 187.165 51.4524 187.956 50.7504 188.699 50.0084C 189.645 49.0634 190.517 48.0444 191.342 46.9934C 192.42 45.6214 193.421 44.1894 194.371 42.7264C 195.557 40.9004 196.664 39.0244 197.728 37.1244L 197.831 36.9364C 197.928 36.3714 198.027 35.8064 198.127 35.2414C 198.226 34.6874 198.327 34.1344 198.431 33.5814C 198.715 32.0764 199.016 30.5734 199.348 29.0784C 199.609 27.9034 199.888 26.7324 200.192 25.5684C 200.446 24.5954 200.72 23.6284 201.021 22.6694C 201.231 22.0004 201.454 21.3354 201.696 20.6764C 201.884 20.1644 202.084 19.6564 202.301 19.1554C 202.464 18.7794 202.635 18.4064 202.819 18.0394C 202.951 17.7764 203.088 17.5164 203.234 17.2614C 203.35 17.0584 203.47 16.8584 203.595 16.6614C 204.279 15.5904 205.168 14.5744 206.351 14.0514C 206.486 13.9924 206.623 13.9394 206.763 13.8944C 207.002 13.8174 207.249 13.7614 207.499 13.7304C 207.843 13.6884 208.188 13.6954 208.532 13.7404L 209.304 14.0054L 209.913 14.5484L 210.264 15.2854L 210.303 16.1004L 209.424 21.8334C 209.406 21.9194 209.391 22.0094 209.367 22.0954C 209.292 22.3614 209.189 22.6204 209.089 22.8774C 208.952 23.2324 208.809 23.5844 208.664 23.9364C 208.212 25.0374 207.74 26.1294 207.257 27.2174C 205.595 30.9564 203.789 34.6304 201.836 38.2264L 201.786 38.3154C 201.321 41.1094 200.909 43.9104 200.515 46.7144L 200.422 47.3854L 200.408 47.4814C 200.565 47.2474 200.725 47.0164 200.886 46.7854C 201.151 46.4084 201.419 46.0324 201.697 45.6634C 201.922 45.3644 202.152 45.0694 202.388 44.7794C 202.627 44.4854 202.875 44.1984 203.129 43.9174C 204.265 42.6654 205.586 41.5434 207.139 40.8494C 207.556 40.6634 207.987 40.5094 208.428 40.3924C 208.577 40.3524 208.729 40.3124 208.882 40.2874C 209.04 40.2624 209.201 40.2494 209.362 40.2534C 209.78 40.2624 210.192 40.3754 210.559 40.5744C 210.749 40.6774 210.926 40.8034 211.088 40.9454C 211.688 41.4734 212.055 42.2124 212.327 42.9504C 212.37 43.0664 212.403 43.1634 212.442 43.2804C 212.619 43.8094 212.762 44.3494 212.891 44.8924C 213.046 45.5474 213.182 46.2064 213.314 46.8664C 213.477 47.6924 213.635 48.5184 213.797 49.3434C 213.928 49.9984 214.064 50.6524 214.214 51.3034L 214.23 51.3744C 214.249 51.2774 214.249 51.2774 214.269 51.1814C 214.293 51.0894 214.293 51.0894 214.318 50.9974C 214.361 50.8604 214.407 50.7254 214.463 50.5934C 214.629 50.2004 214.857 49.8354 215.109 49.4934C 215.43 49.0604 215.793 48.6594 216.174 48.2784C 216.686 47.7654 217.232 47.2864 217.795 46.8294C 218.743 46.0604 219.739 45.3554 220.764 44.6914L 220.943 44.5774L 221.042 44.5144C 221.804 43.6694 222.573 42.8314 223.334 41.9844C 223.685 41.5904 224.032 41.1934 224.386 40.8014C 224.592 40.5734 224.8 40.3474 225.01 40.1224C 226.457 38.5804 227.977 37.1084 229.57 35.7174C 231.701 33.8574 233.949 32.1404 236.27 30.5264C 236.641 30.1884 237.013 29.8524 237.385 29.5174C 238.222 28.7704 239.064 28.0294 239.921 27.3064C 240.539 26.7854 241.164 26.2724 241.799 25.7734C 242.302 25.3784 242.811 24.9914 243.329 24.6184C 243.726 24.3324 244.129 24.0554 244.539 23.7874C 244.845 23.5884 245.157 23.3954 245.474 23.2134C 245.734 23.0634 245.998 22.9204 246.267 22.7864C 246.488 22.6764 246.712 22.5724 246.94 22.4784C 247.124 22.4014 247.311 22.3304 247.501 22.2674C 248.087 22.0724 248.704 21.9494 249.324 21.9754C 249.564 21.9854 249.806 22.0144 250.039 22.0784C 250.166 22.1124 250.267 22.1494 250.388 22.2004C 250.479 22.2394 250.621 22.3234 250.691 22.3624C 250.818 22.4344 250.938 22.5344 251.044 22.6344C 251.106 22.6984 251.169 22.7604 251.227 22.8274C 251.291 22.9054 251.346 22.9894 251.404 23.0714L 251.42 23.0974C 251.485 23.2054 251.541 23.3154 251.588 23.4334L 251.681 23.7274L 251.685 23.7414L 251.706 23.8344C 251.714 23.8904 251.725 23.9464 251.731 24.0024C 251.756 24.2084 251.742 24.4134 251.714 24.6164C 251.694 24.7654 251.649 24.9044 251.602 25.0464C 251.576 25.1254 251.548 25.1864 251.512 25.2634C 251.438 25.4204 251.348 25.5674 251.246 25.7084C 250.959 26.1044 250.585 26.4334 250.199 26.7294C 250.05 26.8434 249.899 26.9534 249.745 27.0594C 249.538 27.2014 249.327 27.3364 249.113 27.4664C 248.915 27.5834 248.714 27.6944 248.513 27.8074C 248.111 28.0354 247.709 28.2644 247.307 28.4944C 245.744 29.3944 244.192 30.3134 242.661 31.2684C 241.427 32.0384 240.21 32.8344 239.009 33.6534L 238.848 33.7644C 236.258 36.1344 233.735 38.5764 231.209 41.0134L 230.94 41.2724C 231.015 41.2894 231.014 41.2904 231.089 41.3084C 231.189 41.3354 231.189 41.3354 231.288 41.3654C 231.451 41.4184 231.612 41.4774 231.768 41.5484C 231.997 41.6534 232.217 41.7804 232.421 41.9284C 232.779 42.1894 233.074 42.5214 233.351 42.8644C 233.983 43.6434 234.478 44.5204 234.904 45.4264C 235.06 45.7594 235.209 46.0964 235.352 46.4344C 235.556 46.9154 235.754 47.3984 235.962 47.8764C 236.05 48.0804 236.14 48.2824 236.233 48.4844C 236.632 49.3354 237.086 50.1654 237.69 50.8894C 237.893 51.1324 238.11 51.3634 238.342 51.5784C 238.553 51.7744 238.776 51.9554 239.001 52.1344C 239.28 52.3574 239.563 52.5744 239.85 52.7884C 241.068 53.6974 242.352 54.5204 243.695 55.2314C 245.603 56.2414 247.628 57.0274 249.729 57.5324C 251.183 57.8814 252.67 58.0944 254.164 58.1664C 256.522 58.2794 258.89 58.0374 261.183 57.4814C 263.316 56.9644 265.381 56.1744 267.332 55.1724C 268.899 54.3664 270.394 53.4224 271.804 52.3674C 272.444 51.8884 273.063 51.3844 273.669 50.8634L 274.37 50.4674L 275.17 50.3704L 275.946 50.5864C 276.157 50.7524 276.405 50.8794 276.58 51.0834C 277.062 51.6444 276.989 51.8924 277.073 52.5844L 276.857 53.3604C 276.691 53.5714 276.537 53.7924 276.36 53.9944C 276.288 54.0764 276.195 54.1374 276.112 54.2074C 275.948 54.3474 275.763 54.5024 275.596 54.6394C 275.165 54.9934 274.725 55.3384 274.278 55.6734C 272.638 56.9004 270.897 57.9934 269.071 58.9204C 266.141 60.4064 262.992 61.4664 259.743 61.9754C 257.889 62.2664 256.007 62.3774 254.133 62.2984C 252.209 62.2164 250.296 61.9364 248.429 61.4644C 245.808 60.8024 243.291 59.7624 240.942 58.4294C 239.65 57.6964 238.409 56.8734 237.222 55.9794C 236.954 55.7774 236.69 55.5724 236.427 55.3634C 236.154 55.1454 235.883 54.9244 235.624 54.6894C 235.23 54.3304 234.861 53.9434 234.519 53.5344C 233.947 52.8484 233.457 52.0974 233.032 51.3124C 232.717 50.7304 232.439 50.1294 232.175 49.5224C 231.919 48.9334 231.678 48.3394 231.423 47.7504C 231.045 46.8854 230.632 46.0064 230 45.2944C 229.945 45.2854 229.89 45.2824 229.835 45.2804C 229.547 45.2734 229.258 45.3174 228.977 45.3754C 228.641 45.4464 228.31 45.5414 227.984 45.6504C 226.877 46.0204 225.821 46.5344 224.797 47.0924C 224.489 47.3734 224.177 47.6504 223.865 47.9264C 223.462 48.2804 223.054 48.6294 222.642 48.9724L 222.567 49.0334C 222.07 49.6144 221.585 50.2064 221.12 50.8134C 220.704 51.3574 220.304 51.9144 219.943 52.4974C 219.794 52.7374 219.652 52.9824 219.522 53.2334C 219.399 53.4704 219.282 53.7094 219.159 53.9454C 219.06 54.1304 218.961 54.3144 218.859 54.4974C 218.425 55.2624 217.955 56.0154 217.365 56.6714C 216.997 57.0804 216.578 57.4514 216.095 57.7194C 215.748 57.9104 215.37 58.0474 214.978 58.1064C 214.697 58.1484 214.411 58.1504 214.13 58.1124C 213.9 58.0804 213.674 58.0224 213.457 57.9384C 213.294 57.8754 213.137 57.7974 212.986 57.7074C 212.283 57.2894 211.78 56.6194 211.407 55.9034C 211.333 55.7594 211.262 55.6134 211.197 55.4654C 211.122 55.2944 211.051 55.1224 210.984 54.9484C 210.914 54.7684 210.85 54.5854 210.789 54.4024C 210.683 54.0864 210.587 53.7674 210.498 53.4454C 210.369 52.9794 210.254 52.5084 210.146 52.0364C 210.002 51.4084 209.872 50.7774 209.746 50.1454C 209.583 49.3224 209.427 48.4964 209.264 47.6724C 209.188 47.2924 209.11 46.9134 209.03 46.5354C 208.914 46.0064 208.792 45.4784 208.641 44.9584L 208.6 44.8224L 208.575 44.7394C 208.484 44.7864 208.394 44.8364 208.305 44.8874C 208.152 44.9794 208.001 45.0744 207.854 45.1784C 207.085 45.7214 206.419 46.4024 205.813 47.1194C 205.047 48.0244 204.365 48.9954 203.705 49.9794C 203.189 50.7504 202.683 51.5284 202.165 52.2984C 201.756 52.9024 201.341 53.5024 200.893 54.0784C 200.772 54.2344 200.649 54.3884 200.523 54.5394C 200.426 54.6564 200.323 54.7694 200.228 54.8874C 200.178 54.9524 200.13 55.0184 200.082 55.0844C 199.661 55.6894 199.301 56.3374 198.96 56.9914L 198.921 57.0674L 198.404 57.7114L 197.676 58.1014L 196.854 58.1754L 196.068 57.9214L 195.445 57.3794L 195.084 56.6364L 195.044 55.8114C 195.208 54.7434 195.373 53.6754 195.534 52.6074C 195.752 51.1104 195.95 49.6104 196.154 48.1114L 196.267 47.2894C 196.064 47.5784 195.855 47.8654 195.646 48.1504C 195.448 48.4204 195.247 48.6884 195.045 48.9544C 194.452 49.7304 193.841 50.4914 193.2 51.2274C 192.741 51.7554 192.268 52.2714 191.777 52.7694C 191.409 53.1414 191.032 53.5044 190.644 53.8544C 190.321 54.1454 189.991 54.4274 189.651 54.6984C 189.43 54.8744 189.205 55.0454 188.976 55.2114C 187.543 56.2484 185.916 57.0924 184.149 57.3524C 183.919 57.3864 183.688 57.4104 183.457 57.4234C 183.157 57.4394 182.856 57.4384 182.556 57.4184C 182.117 57.3884 181.682 57.3184 181.256 57.2074C 180.651 57.0504 180.069 56.8124 179.523 56.5084C 178.922 56.1724 178.365 55.7584 177.858 55.2934C 177.66 55.1114 177.472 54.9214 177.287 54.7274L 177.255 54.6914C 177.162 54.9834 177.066 55.2744 176.969 55.5644C 176.88 55.8274 176.88 55.8264 176.788 56.0894C 176.604 56.6064 176.413 57.1214 176.206 57.6304C 176.035 58.0524 175.854 58.4714 175.661 58.8844C 175.131 60.0154 174.511 61.1104 173.744 62.0994C 173.228 62.7654 172.64 63.3804 171.975 63.9024C 171.476 64.2944 170.933 64.6324 170.356 64.8984C 169.267 65.4004 168.069 65.6314 166.871 65.5984C 165.983 65.5744 165.102 65.4114 164.252 65.1544C 163.874 65.0404 163.5 64.9074 163.134 64.7594C 162.865 64.6504 162.6 64.5364 162.345 64.3974C 161.304 63.8284 160.473 62.9384 159.854 61.9354C 159.337 61.0984 158.95 60.1874 158.646 59.2534C 158.248 58.0334 157.985 56.7754 157.788 55.5094C 157.68 54.8154 157.598 54.1174 157.529 53.4184C 157.419 52.2994 157.352 51.1764 157.315 50.0534C 157.269 48.6164 157.264 47.1794 157.295 45.7424C 157.317 44.7454 157.357 43.7484 157.404 42.7524L 157.41 42.6274C 157.264 42.6814 157.264 42.6814 157.117 42.7324C 156.964 42.7834 156.964 42.7824 156.811 42.8304C 156.512 42.9184 156.21 43.0004 155.902 43.0504C 155.642 43.0934 155.378 43.1134 155.114 43.1074C 154.744 43.0984 154.376 43.0384 154.024 42.9234C 153.767 42.8384 153.519 42.7244 153.287 42.5844C 153.122 42.4844 152.964 42.3724 152.817 42.2484C 152.702 42.1514 152.593 42.0474 152.49 41.9374C 151.714 41.1164 151.326 40.0084 151.127 38.9154C 151.09 38.7104 151.058 38.5044 151.033 38.2984C 151 38.0404 150.976 37.7814 150.957 37.5224C 150.931 37.1514 150.92 36.7804 150.916 36.4084L 150.915 36.2844C 150.714 36.5474 150.512 36.8094 150.307 37.0694C 150.118 37.3074 149.928 37.5444 149.737 37.7814C 148.979 38.7084 148.199 39.6164 147.377 40.4874C 146.874 41.0204 146.357 41.5404 145.822 42.0394C 145.411 42.4234 144.99 42.7954 144.556 43.1514C 144.25 43.4014 143.938 43.6444 143.619 43.8764C 143.369 44.0574 143.114 44.2324 142.855 44.4004C 142.661 44.5254 142.464 44.6464 142.264 44.7614C 141.021 45.4794 139.626 46.0164 138.173 46.0234C 137.936 46.0254 137.699 46.0124 137.464 45.9844C 137.143 45.9464 136.825 45.8804 136.515 45.7864C 136.08 45.6534 135.663 45.4664 135.274 45.2294C 134.763 44.9194 134.297 44.5284 133.9 44.0824C 133.541 43.6784 133.245 43.2194 133.026 42.7254C 132.911 42.4654 132.819 42.1964 132.742 41.9234L 132.738 41.9084C 132.551 42.0624 132.362 42.2144 132.173 42.3664C 131.997 42.5034 131.821 42.6404 131.643 42.7754C 131.227 43.0874 130.805 43.3904 130.372 43.6774C 130.003 43.9214 129.626 44.1544 129.242 44.3734C 128.988 44.5184 128.73 44.6564 128.469 44.7884C 126.918 45.5674 125.186 46.1094 123.433 45.9784C 123.169 45.9584 122.905 45.9234 122.645 45.8724C 122.268 45.7984 121.897 45.6914 121.539 45.5514C 121.021 45.3474 120.529 45.0754 120.08 44.7474C 119.816 44.5534 119.566 44.3414 119.33 44.1144C 119.177 43.9654 119.025 43.8134 118.893 43.6454C 118.774 43.4934 118.667 43.3314 118.574 43.1624C 118.329 42.7194 118.168 42.2324 118.043 41.7434C 117.905 41.2004 117.809 40.6464 117.73 40.0924C 117.586 39.0714 117.489 38.0444 117.391 37.0184C 117.341 36.4944 117.29 35.9704 117.238 35.4464C 117.206 35.1444 117.173 34.8424 117.138 34.5414C 117.056 33.8764 116.969 33.2114 116.836 32.5554L 116.812 32.4384L 116.793 32.3494C 116.681 32.4654 116.571 32.5824 116.462 32.7004C 116.258 32.9274 116.057 33.1574 115.862 33.3914C 115.535 33.7844 115.222 34.1884 114.909 34.5934C 114.499 35.1314 114.092 35.6714 113.681 36.2084C 113.285 36.7184 112.884 37.2244 112.462 37.7124C 112.119 38.1094 111.764 38.4954 111.392 38.8664C 111.115 39.1414 110.829 39.4074 110.533 39.6614C 110.291 39.8694 110.044 40.0684 109.79 40.2604C 109.525 40.4604 109.253 40.6494 108.974 40.8284C 108.382 41.2084 107.757 41.5804 107.052 41.6924C 106.943 41.7104 106.833 41.7224 106.723 41.7264C 106.566 41.7324 106.407 41.7264 106.252 41.7044C 106.073 41.6794 105.897 41.6354 105.728 41.5714C 105.598 41.5234 105.474 41.4624 105.354 41.3934C 105.286 41.3554 105.205 41.2964 105.147 41.2584L 105.105 41.2274C 105.014 41.1554 105.016 41.1534 104.919 41.0704L 104.884 41.0364C 104.736 40.8884 104.602 40.7274 104.492 40.5484C 104.255 40.1614 104.129 39.7134 104.086 39.2644C 104.044 38.8104 104.08 38.3534 104.141 37.9034C 104.163 37.7414 104.188 37.5794 104.217 37.4194C 104.26 37.1794 104.307 36.9414 104.355 36.7034C 104.495 36.0474 104.645 35.3944 104.787 34.7384C 104.942 33.9964 105.094 33.2474 105.138 32.4874L 105.139 32.4644C 104.694 32.7674 104.282 33.1174 103.879 33.4724C 103.386 33.9064 102.906 34.3564 102.43 34.8094C 101.491 35.7044 100.564 36.6124 99.6261 37.5084C 98.9851 38.1174 98.3411 38.7214 97.6801 39.3084C 97.1381 39.7904 96.5861 40.2624 96.0171 40.7124C 95.7201 40.9464 95.4191 41.1754 95.1111 41.3944C 94.8631 41.5714 94.6121 41.7424 94.3551 41.9054C 94.1541 42.0324 93.9501 42.1534 93.7431 42.2694C 92.7761 42.8074 91.6821 43.2274 90.5571 43.1604C 90.3851 43.1494 90.2141 43.1284 90.0441 43.0944C 89.8331 43.0524 89.6251 42.9914 89.4241 42.9124C 89.1481 42.8024 88.8871 42.6574 88.6481 42.4814C 88.3141 42.2364 88.0121 41.9344 87.8021 41.5754C 87.5551 41.1554 87.4261 40.6814 87.3521 40.2034C 87.2821 39.7534 87.2581 39.2964 87.2491 38.8414C 87.2381 38.3454 87.2471 37.8504 87.2591 37.3544C 87.2871 36.3664 87.3311 35.3784 87.3591 34.3894C 87.3751 33.7864 87.3871 33.1834 87.3761 32.5814C 87.3671 32.1104 87.3481 31.6414 87.2991 31.1734L 87.2951 31.1444C 86.8221 31.5104 86.3831 31.9174 85.9601 32.3404C 85.5961 32.7044 85.2431 33.0804 84.8971 33.4624C 83.8301 34.6384 82.8091 35.8544 81.7691 37.0544C 81.5881 37.2624 81.4071 37.4704 81.2251 37.6774C 80.1221 38.9184 78.9931 40.1524 77.7141 41.2154C 77.5211 41.3764 77.3241 41.5314 77.1231 41.6814C 76.1331 42.4194 75.0001 43.0504 73.7551 43.1974C 73.5871 43.2164 73.4181 43.2274 73.2491 43.2284C 73.0061 43.2294 72.7631 43.2104 72.5241 43.1714C 72.2421 43.1244 71.9651 43.0484 71.6991 42.9444C 71.3621 42.8134 71.0371 42.6394 70.7501 42.4194C 70.4221 42.1674 70.1431 41.8574 69.9221 41.5084C 69.6511 41.0804 69.4701 40.6024 69.3581 40.1094C 69.2421 39.6024 69.1991 39.0794 69.1961 38.5594C 69.1911 37.8994 69.2481 37.2394 69.3331 36.5844C 69.4531 35.6624 69.6261 34.7474 69.8161 33.8364C 69.9821 33.0374 70.1581 32.2404 70.3321 31.4434L 70.3931 31.1614C 70.1181 31.5394 69.8391 31.9154 69.5591 32.2894C 69.3421 32.5754 69.1251 32.8614 68.9061 33.1454C 67.8041 34.5664 66.6631 35.9564 65.4421 37.2774C 64.4261 38.3764 63.3561 39.4274 62.1971 40.3764C 61.4191 41.0134 60.5931 41.6014 59.7081 42.0824C 58.9331 42.5034 58.1071 42.8424 57.2411 43.0184C 56.5601 43.1554 55.8571 43.1874 55.1711 43.0794C 54.6771 43.0024 54.1941 42.8544 53.7431 42.6394C 53.1951 42.3784 52.6971 42.0214 52.2621 41.5974C 51.5411 40.8954 50.9961 40.0254 50.6941 39.0634C 50.4261 38.2114 50.3551 37.3054 50.4341 36.4184C 50.5451 35.1644 50.9431 33.9504 51.4671 32.8124C 51.7711 32.1514 52.1211 31.5124 52.5021 30.8924C 53.0641 29.9784 53.6921 29.1074 54.3611 28.2694L 54.4861 28.1134L 54.6071 27.9654C 54.3091 28.0294 54.0121 28.0954 53.7151 28.1624C 52.1961 28.5134 50.6871 28.9124 49.2131 29.4254C 48.1141 29.8074 47.0261 30.2494 46.0101 30.8204C 45.7521 30.9654 45.4981 31.1184 45.2531 31.2844C 45.0211 31.4404 44.7931 31.6064 44.5671 31.7664C 44.2831 31.9694 43.7801 32.3304 43.4971 32.5344C 42.1371 33.5194 40.7931 34.5254 39.4641 35.5534C 39.4771 36.8544 39.4841 38.1554 39.4911 39.4564C 39.4911 40.0164 39.4621 40.5754 39.4231 41.1334C 39.3891 41.6264 39.3471 42.1194 39.3001 42.6114C 39.1631 44.0554 38.9881 45.4964 38.7941 46.9344C 38.2601 50.9124 37.5861 54.8724 36.8141 58.8114C 36.0371 62.7704 35.1551 66.7104 34.1451 70.6174C 33.0931 74.6894 31.9051 78.7294 30.5141 82.7004C 29.4911 85.6214 28.3521 88.5074 27.0401 91.3124C 25.8911 93.7664 24.6081 96.1664 23.0981 98.4184C 22.7161 98.9874 22.3191 99.5474 21.9061 100.094C 21.5721 100.536 21.2251 100.97 20.8671 101.393C 20.5871 101.724 20.2991 102.047 20.0041 102.363C 18.2461 104.242 16.1581 105.881 13.7291 106.787C 13.4081 106.906 13.0811 107.013 12.7501 107.105C 12.2311 107.25 11.7021 107.359 11.1671 107.431C 10.4271 107.53 9.6771 107.555 8.9311 107.507C 7.8411 107.438 6.7651 107.213 5.7301 106.865C 4.9401 106.599 4.1751 106.261 3.4371 105.872C 3.2821 105.79 3.1281 105.706 2.9751 105.619C 2.8111 105.526 2.6501 105.431 2.4961 105.324C 2.3101 105.195 2.1351 105.051 1.9711 104.896C 1.4951 104.446 1.1261 103.894 0.862102 103.296L 0.830102 103.221C 0.692102 102.882 0.580102 102.535 0.496102 102.179C 0.359102 101.588 0.296102 100.981 0.269102 100.376C 0.240102 99.6904 0.263102 99.0034 0.263102 98.3174C 0.261102 98.1844 0.259102 98.0524 0.252102 97.9194C 0.234102 97.6684 0.206102 97.4174 0.184102 97.1664C 0.156102 96.8294 0.156102 96.8294 0.131102 96.4924C 0.0561024 95.3784 0.00810235 94.2634 0.00110235 93.1474C -0.0118976 91.1684 0.0901023 89.1884 0.306102 87.2214C 0.519102 85.2784 0.838102 83.3464 1.2621 81.4374C 1.5901 79.9584 1.9781 78.4924 2.4231 77.0444C 2.7731 75.9054 3.1571 74.7764 3.5741 73.6594C 6.4361 65.9984 10.7871 58.9634 15.8911 52.5994C 16.7391 51.5414 17.6101 50.5034 18.4991 49.4804C 19.8421 47.9364 21.2301 46.4324 22.6571 44.9654C 24.4091 43.1634 26.2171 41.4164 28.0761 39.7234C 29.5971 38.3374 31.1491 36.9844 32.7301 35.6664C 33.5191 35.0094 34.3151 34.3614 35.1161 33.7194L 35.3061 33.5684C 35.2601 31.2004 35.1601 28.8314 34.9321 26.4734C 34.6851 23.9144 34.2861 21.3654 33.6191 18.8804C 33.3191 17.7614 32.9651 16.6564 32.5471 15.5754C 32.4311 15.2764 32.3111 14.9794 32.1851 14.6844C 32.1541 14.6114 32.0781 14.4354 32.0441 14.3584C 32.0381 14.3464 32.0291 14.3364 32.0211 14.3254C 32.0051 14.3014 31.9891 14.2784 31.9721 14.2554C 31.8041 14.0334 31.6251 13.8214 31.4541 13.6024C 31.2801 13.3694 31.1121 13.1304 30.9861 12.8664C 30.8681 12.6214 30.7901 12.3634 30.7491 12.0944C 30.7251 11.9424 30.7231 11.7854 30.7321 11.6314C 30.7421 11.5464 30.7471 11.4604 30.7621 11.3764C 30.7771 11.2894 30.8021 11.2054 30.8221 11.1204L 30.8461 11.0434C 30.8631 10.9964 30.8791 10.9504 30.8981 10.9044C 30.9441 10.7914 31.0011 10.6844 31.0641 10.5804L 31.2031 10.3804C 31.2591 10.3094 31.3181 10.2424 31.3821 10.1774L 31.5341 10.0374C 31.6481 9.94238 31.7691 9.85538 31.8981 9.78338C 32.0021 9.72538 32.1111 9.67638 32.2221 9.63338C 32.9531 9.35338 33.7591 9.43338 34.5151 9.54538L 35.2741 9.81538L 35.8711 10.3564L 36.2161 11.0844C 36.2561 11.8834 36.2551 11.8934 35.9861 12.6474L 35.8621 12.7844C 35.9341 12.9474 36.0031 13.1104 36.0711 13.2744C 36.1541 13.4754 36.2361 13.6764 36.3171 13.8784C 36.6091 14.6254 36.8791 15.3804 37.1211 16.1444C 37.7101 18.0004 38.1541 19.9024 38.4811 21.8214C 38.7931 23.6544 39.0081 25.5014 39.1541 27.3544C 39.2321 28.3444 39.2891 29.3364 39.3351 30.3284L 39.3411 30.4634C 39.7351 30.1694 40.1321 29.8784 40.5291 29.5874C 40.8941 29.3224 41.2591 29.0584 41.6251 28.7944C 42.0271 28.5074 42.4281 28.2194 42.8331 27.9374C 42.9431 27.8614 43.0551 27.7874 43.1681 27.7134C 44.2841 26.9974 45.4871 26.4284 46.7191 25.9454C 47.7771 25.5304 48.8581 25.1784 49.9501 24.8644C 51.2121 24.5034 52.4881 24.1954 53.7721 23.9214C 55.7461 23.5014 57.7371 23.1694 59.7341 22.8834L 59.8591 22.8664C 59.9951 22.7654 60.1311 22.6664 60.2691 22.5684C 60.3841 22.4884 60.5001 22.4094 60.6171 22.3314C 60.8751 22.1624 61.1371 21.9974 61.4091 21.8524C 61.6121 21.7444 61.8221 21.6494 62.0361 21.5644C 62.7911 21.2634 63.5931 21.0914 64.3961 20.9824C 65.3171 20.8584 66.2491 20.8194 67.1771 20.8224C 68.6141 20.8274 70.0501 20.9354 71.4771 21.0974C 72.6771 21.2344 73.8741 21.4084 75.0611 21.6284L 75.1701 21.6484L 75.9601 21.9794L 76.5481 22.6024L 76.8331 23.4104L 76.7641 24.2644L 76.3561 25.0174L 75.6771 25.5394L 74.9841 25.7064C 75.0051 25.7924 75.0241 25.8794 75.0401 25.9664C 75.1501 26.5514 75.1591 27.1504 75.1251 27.7434C 75.0891 28.3814 75.0041 29.0154 74.8991 29.6444C 74.6331 31.2224 74.2591 32.7794 73.9281 34.3444C 73.8821 34.5634 73.8361 34.7824 73.7911 35.0024C 73.6271 35.8314 73.4671 36.6654 73.3821 37.5074C 73.3301 38.0244 73.2901 38.5524 73.3611 39.0704L 73.3631 39.0794C 73.5051 39.0474 73.6401 38.9894 73.7701 38.9274C 73.9761 38.8284 74.1721 38.7084 74.3611 38.5804C 74.9051 38.2134 75.4001 37.7754 75.8751 37.3254C 76.2091 37.0084 76.5321 36.6804 76.8491 36.3464C 77.3761 35.7924 77.8871 35.2224 78.3901 34.6474C 79.1921 33.7314 79.9791 32.8044 80.7761 31.8844C 80.9531 31.6824 81.1311 31.4804 81.3091 31.2784C 82.1971 30.2814 83.1031 29.2904 84.1131 28.4144C 84.7071 27.8994 85.3411 27.4164 86.0431 27.0564C 86.4961 26.8234 86.9821 26.6344 87.4861 26.5494C 87.8451 26.4894 88.2141 26.4894 88.5731 26.5564C 88.8081 26.6014 89.0371 26.6744 89.2541 26.7754C 89.4351 26.8594 89.6071 26.9614 89.7671 27.0804C 89.8961 27.1754 90.0181 27.2824 90.1311 27.3964C 90.8331 28.1084 91.1491 29.0984 91.3121 30.0624C 91.3341 30.1944 91.3541 30.3264 91.3711 30.4584C 91.4001 30.6794 91.4231 30.9014 91.4411 31.1234C 91.4641 31.3994 91.4801 31.6774 91.4901 31.9544C 91.5021 32.3284 91.5101 32.7034 91.5091 33.0774C 91.5091 33.6474 91.4961 34.2174 91.4791 34.7874C 91.4541 35.5974 91.4201 36.4074 91.3931 37.2174C 91.3861 37.4544 91.3811 37.6914 91.3761 37.9284C 91.3731 38.2034 91.3731 38.4784 91.3771 38.7534L 91.3791 38.8434C 91.8071 38.6404 92.2081 38.3874 92.5951 38.1164C 92.9801 37.8474 93.3531 37.5604 93.7181 37.2644C 94.7821 36.3994 95.7851 35.4634 96.7771 34.5184C 97.7161 33.6224 98.6431 32.7134 99.5831 31.8184C 100.058 31.3664 100.536 30.9184 101.026 30.4834C 101.387 30.1624 101.754 29.8474 102.135 29.5494C 102.483 29.2774 102.842 29.0164 103.223 28.7914C 103.504 28.6254 103.797 28.4774 104.104 28.3674C 104.361 28.2764 104.626 28.2184 104.895 28.1754C 105.245 28.1194 105.601 28.0954 105.956 28.1194C 106.54 28.1574 107.116 28.3264 107.613 28.6414C 107.818 28.7714 108.008 28.9244 108.179 29.0964C 108.389 29.3094 108.57 29.5514 108.718 29.8104C 109.164 30.5954 109.289 31.5174 109.272 32.4074C 109.252 33.4754 109.048 34.5344 108.83 35.5774C 108.92 35.4824 109.007 35.3854 109.095 35.2884C 109.513 34.8194 109.906 34.3324 110.294 33.8384C 110.83 33.1474 111.352 32.4454 111.885 31.7534C 112.559 30.8874 113.258 30.0404 114.035 29.2644C 114.254 29.0464 114.478 28.8334 114.708 28.6284C 114.993 28.3734 115.288 28.1334 115.619 27.9394C 115.992 27.7214 116.402 27.5624 116.83 27.4954C 117.13 27.4484 117.436 27.4464 117.735 27.4924C 117.961 27.5274 118.183 27.5894 118.394 27.6774C 118.554 27.7434 118.708 27.8244 118.854 27.9174C 118.971 27.9924 119.083 28.0744 119.189 28.1644C 119.882 28.7484 120.287 29.5964 120.556 30.4454C 120.6 30.5824 120.64 30.7214 120.678 30.8604C 120.73 31.0514 120.777 31.2454 120.82 31.4394C 120.886 31.7344 120.943 32.0314 120.994 32.3294C 121.056 32.6914 121.11 33.0544 121.159 33.4184C 121.243 34.0604 121.314 34.7034 121.378 35.3474C 121.46 36.1844 121.538 37.0214 121.621 37.8584C 121.652 38.1454 121.683 38.4334 121.716 38.7204C 121.775 39.2094 121.837 39.6974 121.928 40.1814C 121.987 40.4934 122.049 40.8104 122.164 41.1074C 122.171 41.1244 122.188 41.1344 122.201 41.1464C 122.233 41.1764 122.246 41.1894 122.279 41.2194C 122.466 41.3854 122.669 41.5324 122.895 41.6404C 122.981 41.6814 123.069 41.7174 123.16 41.7474C 123.781 41.9514 124.456 41.8714 125.075 41.7054C 125.201 41.6714 125.326 41.6334 125.45 41.5914C 125.607 41.5384 125.762 41.4804 125.916 41.4174C 126.104 41.3404 126.29 41.2574 126.474 41.1684C 126.72 41.0494 126.961 40.9204 127.198 40.7854C 127.503 40.6114 127.801 40.4264 128.094 40.2324C 128.456 39.9934 128.809 39.7414 129.155 39.4804C 129.62 39.1294 130.071 38.7624 130.513 38.3834C 131.056 37.9184 131.584 37.4344 132.099 36.9384C 132.462 36.5894 132.82 36.2334 133.172 35.8724C 133.342 35.6984 133.505 35.5284 133.672 35.3524C 133.748 35.2724 133.829 35.1964 133.9 35.1114C 133.917 35.0904 133.924 35.0624 133.937 35.0374C 133.956 34.9984 133.976 34.9594 133.996 34.9204C 134.034 34.8464 134.072 34.7724 134.111 34.6994C 134.191 34.5504 134.272 34.4024 134.354 34.2544C 134.525 33.9574 134.698 33.6624 134.882 33.3724C 135.395 32.5614 135.964 31.7824 136.577 31.0434C 137.252 30.2294 137.98 29.4604 138.761 28.7474C 139.179 28.3644 139.613 27.9994 140.062 27.6534C 140.402 27.3914 140.751 27.1404 141.11 26.9034C 141.393 26.7174 141.681 26.5384 141.976 26.3714C 143.544 25.4774 145.326 24.8384 147.153 24.9054C 147.404 24.9144 147.654 24.9374 147.903 24.9744C 148.24 25.0244 148.573 25.1004 148.898 25.2024C 149.315 25.3344 149.718 25.5104 150.098 25.7254C 150.566 25.9914 150.998 26.3154 151.389 26.6854C 151.55 26.8384 151.715 26.9964 151.849 27.1754C 151.913 27.2604 151.97 27.3524 152.023 27.4464C 152.087 27.5764 152.09 27.5744 152.147 27.7044L 152.152 27.7184C 152.21 27.6594 152.269 27.6014 152.327 27.5424L 152.378 27.4924L 153.114 27.0204L 153.979 26.8954L 154.818 27.1394L 155.481 27.7094L 155.849 28.5024C 155.851 28.7944 155.862 29.0854 155.855 29.3764C 155.854 29.4254 155.835 29.4724 155.825 29.5204C 155.785 29.7134 155.786 29.7134 155.748 29.9064C 155.698 30.1714 155.648 30.4364 155.602 30.7024C 155.437 31.6434 155.301 32.5904 155.201 33.5404C 155.112 34.3974 155.052 35.2574 155.045 36.1194C 155.041 36.6394 155.058 37.1614 155.117 37.6784C 155.166 38.1044 155.236 38.5364 155.402 38.9334L 155.403 38.9374C 156.244 38.7244 157.015 38.2944 157.729 37.8124L 157.749 37.7984C 157.782 37.4174 157.818 37.0364 157.853 36.6564C 157.902 36.1494 157.953 35.6424 158.005 35.1354C 158.13 33.9704 158.261 32.8064 158.406 31.6434C 158.817 28.3354 159.314 25.0374 159.901 21.7564C 160.186 20.1584 160.493 18.5644 160.838 16.9784C 161.105 15.7524 161.39 14.5294 161.782 13.3364C 162.494 11.1634 163.48 9.09238 164.501 7.05038C 165.087 5.88538 165.685 4.72638 166.266 3.55838C 166.288 3.51938 166.339 3.42538 166.36 3.39138C 166.418 3.29838 166.482 3.20738 166.55 3.12138C 166.831 2.76238 167.187 2.46638 167.556 2.20238C 167.861 1.98338 168.181 1.78438 168.507 1.59938C 168.92 1.36538 169.345 1.15338 169.778 0.962377C 170.121 0.811377 170.47 0.672377 170.825 0.548377C 171.067 0.464377 171.312 0.387377 171.559 0.318377C 171.747 0.266377 171.935 0.219377 172.125 0.178377C 173.226 -0.0596228 174.425 -0.113623 175.474 0.358377C 175.63 0.428377 175.78 0.509377 175.924 0.601377C 176.117 0.724377 176.298 0.866377 176.462 1.02638C 176.668 1.22738 176.848 1.45538 176.996 1.70238C 177.115 1.90338 177.21 2.11538 177.294 2.33238C 177.377 2.54738 177.449 2.76538 177.512 2.98738C 177.677 3.57738 177.771 4.18638 177.821 4.79738C 177.881 5.55338 177.874 6.31438 177.824 7.07038C 177.763 8.02038 177.636 8.96538 177.469 9.90138C 177.274 10.9984 177.024 12.0844 176.739 13.1614C 176.394 14.4654 175.992 15.7544 175.551 17.0294C 174.988 18.6604 174.358 20.2674 173.674 21.8524C 173.029 23.3494 172.333 24.8254 171.59 26.2774C 170.619 28.1744 169.565 30.0284 168.417 31.8234C 167.551 33.1784 166.628 34.5004 165.63 35.7624C 164.863 36.7344 164.055 37.6744 163.187 38.5574C 162.756 38.9954 162.309 39.4174 161.849 39.8244L 161.718 39.9384C 161.579 41.7424 161.484 43.5504 161.435 45.3594C 161.374 47.6464 161.39 49.9404 161.568 52.2224C 161.669 53.5114 161.822 54.7984 162.079 56.0664C 162.284 57.0774 162.551 58.0884 162.978 59.0304C 163.141 59.3884 163.329 59.7374 163.562 60.0544C 163.709 60.2554 163.877 60.4474 164.072 60.6034C 164.157 60.6714 164.247 60.7324 164.343 60.7834C 164.452 60.8404 164.568 60.8854 164.682 60.9314C 164.933 61.0324 165.188 61.1234 165.447 61.2024C 166.298 61.4594 167.22 61.5814 168.09 61.3444C 168.336 61.2774 168.575 61.1814 168.802 61.0624C 169.153 60.8774 169.473 60.6354 169.763 60.3644C 170.182 59.9724 170.541 59.5204 170.86 59.0454C 171.309 58.3774 171.683 57.6604 172.015 56.9284C 172.309 56.2804 172.57 55.6174 172.811 54.9484C 173.271 53.6714 173.654 52.3704 174.022 51.0654C 174.339 49.9274 174.643 48.7864 174.958 47.6474C 175.326 46.3284 175.703 45.0044 176.219 43.7334C 176.412 43.2584 176.627 42.7914 176.88 42.3454C 177.1 41.9604 177.349 41.5874 177.643 41.2544C 178.014 40.8364 178.457 40.4854 178.906 40.1564C 179.409 39.7894 179.93 39.4474 180.455 39.1134C 180.57 38.9534 180.689 38.7964 180.806 38.6374C 181.028 38.3444 181.252 38.0514 181.481 37.7634C 182.544 36.4274 183.695 35.1574 184.941 33.9884C 185.902 33.0874 186.922 32.2424 188.023 31.5154C 188.858 30.9644 189.746 30.4764 190.691 30.1394C 191.067 30.0064 191.455 29.8894 191.849 29.8244C 192.063 29.7904 192.277 29.7744 192.493 29.7704C 192.583 29.7704 192.673 29.7724 192.763 29.7764L 192.763 29.7764ZM 35.1191 39.0524C 32.9111 40.9054 30.7551 42.8214 28.6731 44.8144C 27.0021 46.4134 25.3751 48.0574 23.8041 49.7544C 22.6191 51.0334 21.4631 52.3394 20.3451 53.6774C 19.4461 54.7524 18.5701 55.8474 17.7201 56.9614C 13.0661 63.0634 9.1611 69.8024 6.7371 77.1064C 6.4521 77.9644 6.1891 78.8314 5.9481 79.7034C 5.6271 80.8634 5.3451 82.0334 5.1061 83.2124C 4.7481 84.9824 4.4821 86.7714 4.3211 88.5714C 4.1571 90.3894 4.0981 92.2174 4.1441 94.0424C 4.1741 95.2114 4.2531 96.3784 4.3641 97.5424C 4.3721 97.6534 4.3781 97.7654 4.3841 97.8764C 4.3991 98.4244 4.3851 98.9714 4.3831 99.5184C 4.3831 99.6804 4.3841 99.8424 4.3881 100.004C 4.4021 100.481 4.4301 100.968 4.5681 101.428C 4.6281 101.628 4.7131 101.852 4.9011 101.964C 5.0161 102.03 5.1311 102.094 5.2481 102.158C 5.5491 102.319 5.8541 102.472 6.1671 102.61C 6.8191 102.897 7.5001 103.122 8.1991 103.258C 8.7171 103.358 9.2451 103.408 9.7721 103.401C 10.1511 103.395 10.5291 103.36 10.9011 103.295C 11.1191 103.257 11.3351 103.21 11.5481 103.153C 13.2291 102.705 14.7091 101.706 15.9801 100.543C 16.2001 100.342 16.4141 100.134 16.6231 99.9224C 16.9051 99.6374 17.1781 99.3444 17.4421 99.0434C 17.7851 98.6514 18.1161 98.2494 18.4341 97.8374C 18.8661 97.2784 19.2761 96.7044 19.6691 96.1184C 20.1501 95.4014 20.6041 94.6674 21.0371 93.9214C 21.6771 92.8194 22.2711 91.6904 22.8301 90.5454C 23.4831 89.2084 24.0891 87.8474 24.6601 86.4724C 25.4141 84.6554 26.1051 82.8124 26.7501 80.9544C 27.5531 78.6404 28.2851 76.3024 28.9601 73.9484C 29.8221 70.9394 30.5991 67.9054 31.3041 64.8554C 32.1531 61.1784 32.9001 57.4764 33.5531 53.7594C 34.0721 50.8004 34.5351 47.8294 34.9001 44.8474C 35.0221 43.8494 35.1351 42.8494 35.2241 41.8474C 35.2921 41.0844 35.3561 40.3184 35.3621 39.5514L 35.3621 39.4674L 35.3581 38.8514C 35.2791 38.9184 35.1991 38.9854 35.1191 39.0524L 35.1191 39.0524ZM 149.307 31.4224C 148.764 31.6124 148.216 31.7874 147.667 31.9564C 146.6 32.2814 145.53 32.5914 144.463 32.9134C 143.383 33.2434 142.304 33.5824 141.253 33.9984C 140.923 34.1284 140.598 34.2694 140.282 34.4294C 140.163 34.4904 140.046 34.5534 139.933 34.6244C 139.86 34.6704 139.785 34.7164 139.72 34.7744C 139.656 34.8354 139.603 34.9084 139.545 34.9754C 139.464 35.0694 139.384 35.1634 139.304 35.2564C 139.033 35.5714 138.762 35.8844 138.489 36.1964C 138.134 36.5974 137.777 36.9964 137.416 37.3914L 137.359 37.4534C 137.237 37.7304 137.123 38.0104 137.025 38.2964C 136.817 38.9064 136.655 39.5474 136.651 40.1954C 136.65 40.5264 136.692 40.8814 136.863 41.1714C 136.919 41.2664 136.992 41.3474 137.07 41.4254C 137.143 41.4964 137.22 41.5634 137.302 41.6244C 137.436 41.7234 137.586 41.7994 137.747 41.8444C 137.94 41.8984 138.144 41.9044 138.343 41.8844C 138.653 41.8524 138.956 41.7634 139.246 41.6514C 139.727 41.4654 140.182 41.2124 140.614 40.9324C 141.241 40.5254 141.83 40.0634 142.394 39.5724C 143.087 38.9694 143.742 38.3234 144.373 37.6544C 146.061 35.8644 147.578 33.9174 149.004 31.9154L 149.191 31.6494L 149.363 31.4024C 149.344 31.4094 149.325 31.4164 149.307 31.4224L 149.307 31.4224ZM 68.8371 26.0664C 67.5401 26.1664 66.2441 26.2774 64.9501 26.4104C 63.8241 26.5254 62.6991 26.6564 61.5761 26.8004L 61.5311 26.8064C 60.7881 27.4244 60.0841 28.0894 59.4111 28.7824C 58.6911 29.5244 58.0061 30.3034 57.3711 31.1204C 56.8881 31.7414 56.4321 32.3844 56.0201 33.0554C 55.6281 33.6924 55.2731 34.3564 54.9971 35.0524C 54.8121 35.5174 54.6621 35.9984 54.5831 36.4934C 54.5301 36.8224 54.5121 37.1634 54.5591 37.4934C 54.5941 37.7334 54.6661 37.9664 54.7841 38.1784C 54.8711 38.3334 54.9801 38.4754 55.1051 38.6014C 55.2441 38.7434 55.4051 38.8724 55.5921 38.9434C 55.8911 39.0564 56.2231 39.0204 56.5271 38.9474C 56.7731 38.8894 57.0121 38.8004 57.2421 38.6984C 57.5701 38.5534 57.8841 38.3794 58.1881 38.1904C 58.3791 38.0714 58.5661 37.9464 58.7501 37.8164C 58.9771 37.6564 59.1981 37.4884 59.4151 37.3154C 59.7101 37.0804 59.9981 36.8364 60.2801 36.5854C 61.2871 35.6864 62.2231 34.7074 63.1151 33.6934C 65.1931 31.3314 67.0551 28.7904 68.8421 26.2054L 68.9431 26.0584C 68.9081 26.0614 68.8721 26.0634 68.8371 26.0664L 68.8371 26.0664ZM 173.509 4.13538C 173.222 4.15938 172.94 4.22038 172.663 4.29738C 172.289 4.40138 171.924 4.53538 171.567 4.68738C 171.253 4.82138 170.945 4.97038 170.645 5.13438C 170.371 5.28538 170.102 5.44838 169.854 5.63838L 169.837 5.65238C 169.295 6.73938 168.737 7.81838 168.191 8.90238C 168.034 9.21738 167.878 9.53238 167.723 9.84738C 166.924 11.4974 166.159 13.1704 165.609 14.9214C 165.433 15.4824 165.289 16.0514 165.153 16.6224C 165.034 17.1244 164.921 17.6284 164.813 18.1334C 164.475 19.7054 164.175 21.2854 163.897 22.8694C 163.298 26.2714 162.798 29.6904 162.386 33.1194L 162.374 33.2244C 163.293 32.0634 164.141 30.8464 164.939 29.5994C 166.016 27.9154 167.004 26.1754 167.914 24.3954C 168.742 22.7784 169.507 21.1284 170.208 19.4524C 170.972 17.6204 171.661 15.7554 172.244 13.8584C 172.558 12.8364 172.842 11.8044 173.081 10.7614C 173.299 9.80438 173.482 8.83838 173.603 7.86338C 173.691 7.16138 173.744 6.45238 173.733 5.74438C 173.725 5.23738 173.687 4.72738 173.569 4.23238L 173.552 4.16338L 173.544 4.13338C 173.533 4.13438 173.521 4.13438 173.509 4.13538L 173.509 4.13538Z"/>
</defs>
</svg>
