<?xml version="1.0" encoding="UTF-8" standalone="no"?>
<!DOCTYPE svg PUBLIC "-//W3C//DTD SVG 1.1//EN" "http://www.w3.org/Graphics/SVG/1.1/DTD/svg11.dtd">
<svg width="100%" height="100%" viewBox="0 0 248 96" version="1.1" xmlns="http://www.w3.org/2000/svg" xmlns:xlink="http://www.w3.org/1999/xlink" xml:space="preserve" style="fill-rule:evenodd;clip-rule:evenodd;stroke-linejoin:round;stroke-miterlimit:1.41421;">
    <g transform="matrix(1,0,0,1,-10661,-1211)">
        <g transform="matrix(1.22449,0,0,0.874386,2733.42,1)">
            <g id="logo" transform="matrix(0.816667,0,0,1.14366,-526.162,-736.301)">
                <path d="M8579.76,1907.18C8580.71,1907.17 8581.17,1907.63 8581.16,1908.58L8581.16,1942.89C8581.16,1945.57 8579.89,1947.41 8577.37,1948.42C8576.03,1948.94 8574.64,1949.2 8573.19,1949.2C8572.43,1949.2 8572.05,1948.74 8572.05,1947.83L8572.05,1944.17C8572.01,1943.33 8572.4,1942.85 8573.22,1942.72C8574.32,1942.46 8574.87,1941.73 8574.89,1940.54L8574.89,1908.58C8574.87,1907.63 8575.34,1907.17 8576.28,1907.18L8579.76,1907.18ZM8687.94,1935.85C8686.99,1935.87 8686.53,1935.4 8686.55,1934.45L8686.55,1933.39C8683.83,1935.33 8680.92,1936.29 8677.8,1936.29C8673.74,1936.29 8670.27,1934.85 8667.39,1931.96C8664.51,1929.08 8663.07,1925.6 8663.07,1921.54C8663.07,1917.48 8664.51,1914.01 8667.39,1911.12C8670.27,1908.24 8673.73,1906.79 8677.77,1906.79C8680.85,1906.79 8683.78,1907.78 8686.55,1909.75L8686.55,1908.63C8686.53,1907.69 8686.99,1907.22 8687.94,1907.24L8691.08,1907.24C8692.03,1907.22 8692.49,1907.69 8692.48,1908.63L8692.48,1934.45C8692.49,1935.4 8692.03,1935.86 8691.08,1935.85L8687.94,1935.85ZM8608.44,1935.85C8607.5,1935.87 8607.03,1935.4 8607.05,1934.45L8607.05,1933.39C8604.34,1935.33 8601.43,1936.29 8598.31,1936.29C8594.24,1936.29 8590.77,1934.85 8587.9,1931.96C8585.02,1929.08 8583.58,1925.6 8583.58,1921.54C8583.58,1917.48 8585.02,1914.01 8587.9,1911.12C8590.77,1908.24 8594.23,1906.79 8598.28,1906.79C8601.36,1906.79 8604.28,1907.78 8607.05,1909.75L8607.05,1908.63C8607.03,1907.69 8607.5,1907.22 8608.44,1907.24L8611.59,1907.24C8612.54,1907.22 8613,1907.69 8612.98,1908.63L8612.98,1934.45C8613,1935.4 8612.54,1935.86 8611.59,1935.85L8608.44,1935.85ZM8697.32,1935.85C8696.37,1935.87 8695.91,1935.4 8695.93,1934.45L8695.93,1897.24C8695.91,1896.29 8696.37,1895.82 8697.32,1895.84L8700.86,1895.84C8701.81,1895.82 8702.27,1896.29 8702.25,1897.24L8702.25,1934.45C8702.27,1935.4 8701.81,1935.86 8700.86,1935.85L8697.32,1935.85ZM8617.6,1935.85C8616.66,1935.87 8616.19,1935.4 8616.21,1934.45L8616.21,1908.63C8616.19,1907.69 8616.66,1907.22 8617.6,1907.24L8620.81,1907.24C8621.74,1907.2 8622.2,1907.63 8622.2,1908.52L8622.2,1908.78C8624.11,1907.45 8626.3,1906.79 8628.77,1906.79C8632.46,1906.79 8635.59,1908.07 8638.15,1910.62C8640.73,1908.07 8643.88,1906.79 8647.59,1906.79C8651.38,1906.79 8654.44,1907.96 8656.78,1910.31C8659.04,1912.57 8660.18,1915.45 8660.18,1918.97L8660.18,1934.45C8660.19,1935.4 8659.73,1935.86 8658.78,1935.85L8655.3,1935.85C8654.36,1935.87 8653.89,1935.4 8653.91,1934.45L8653.91,1919.36C8653.91,1917.67 8653.29,1916.2 8652.05,1914.95C8650.78,1913.7 8649.31,1913.08 8647.62,1913.08C8646.08,1913.08 8644.7,1913.57 8643.47,1914.56C8642.02,1915.73 8641.3,1917.18 8641.3,1918.92L8641.3,1934.45C8641.32,1935.4 8640.85,1935.86 8639.91,1935.85L8636.43,1935.85C8635.48,1935.87 8635.01,1935.4 8635.03,1934.45L8635.03,1919.36C8635.03,1917.65 8634.4,1916.17 8633.14,1914.92C8631.9,1913.69 8630.39,1913.08 8628.63,1913.08C8626.68,1913.08 8625.13,1913.67 8623.98,1914.87C8622.98,1915.94 8622.48,1917.33 8622.48,1919.03L8622.48,1934.45C8622.5,1935.4 8622.03,1935.86 8621.09,1935.85L8617.6,1935.85ZM8773.01,1911.54C8771.58,1913.69 8770.11,1915.91 8768.57,1918.09C8768.42,1918.13 8768.26,1918.19 8768.1,1918.27C8768.33,1918.15 8768.48,1918.26 8767.82,1918.32C8767.38,1918.36 8766.94,1918.37 8766.5,1918.4C8764.91,1918.48 8763.3,1918.51 8761.7,1918.54C8760.74,1918.56 8759.78,1918.57 8758.82,1918.58C8759.41,1917.85 8759.98,1917.09 8760.52,1916.31C8763.1,1912.5 8756.48,1911.31 8754.48,1914.26C8753.37,1915.9 8752.07,1917.42 8750.63,1918.8C8750.16,1918.99 8749.82,1919.33 8749.59,1919.76C8742.25,1926.23 8731.73,1929.56 8722.56,1928.8C8719.63,1928.55 8716.03,1927.9 8713.67,1925.89C8710.12,1922.85 8714.07,1920.13 8716.82,1918.8C8721.75,1916.41 8731.67,1913.72 8735.86,1918.92C8738.08,1921.66 8744.41,1918.19 8741.94,1915.13C8735.77,1907.49 8722.66,1910 8715.07,1913.46C8711.13,1915.25 8706.52,1917.86 8705.36,1922.59C8704.22,1927.22 8707.77,1930.54 8711.41,1932.28C8720.09,1936.42 8730.64,1934.96 8739.4,1931.84C8743.58,1930.36 8747.63,1928.32 8751.27,1925.7C8751.61,1925.89 8752,1926 8752.41,1926C8755.76,1926 8759.1,1925.97 8762.45,1925.9C8761.52,1926.92 8760.57,1927.91 8759.57,1928.84C8757.01,1931.23 8760.32,1937.88 8763.16,1935.23C8768.75,1930.01 8773.33,1923.17 8777.59,1916.77C8779.52,1913.86 8775.39,1907.96 8773.01,1911.54ZM8813.86,1910.76C8805.57,1913.47 8797.27,1916.15 8788.99,1918.88C8788,1919.21 8787.01,1919.55 8786.01,1919.9C8786.73,1918.51 8787.43,1917.1 8788.08,1915.67C8789.58,1912.34 8782.81,1909.88 8781.26,1913.31C8778.7,1918.97 8775.39,1924.16 8771.81,1929.16C8769.52,1932.38 8775.87,1935.75 8777.94,1932.86C8779.23,1931.05 8780.84,1929.65 8782.63,1928.51C8792,1930.31 8801.3,1932.34 8810.6,1934.54C8814.36,1935.42 8815.34,1928.05 8812.01,1927.27C8806.42,1925.94 8800.82,1924.69 8795.2,1923.5C8802.63,1921.08 8810.06,1918.65 8817.49,1916.22C8821.74,1914.83 8817.16,1909.68 8813.86,1910.76ZM8683.76,1915.54C8685.39,1917.17 8686.21,1919.18 8686.21,1921.54C8686.21,1923.93 8685.39,1925.93 8683.76,1927.55C8682.13,1929.19 8680.13,1930.01 8677.77,1930.01C8675.42,1930.01 8673.42,1929.19 8671.79,1927.55C8670.15,1925.93 8669.34,1923.93 8669.34,1921.54C8669.34,1919.18 8670.15,1917.17 8671.79,1915.54C8673.42,1913.9 8675.39,1913.08 8677.69,1913.08C8680.12,1913.08 8682.15,1913.9 8683.76,1915.54L8683.76,1915.54ZM8604.27,1915.54C8605.9,1917.17 8606.72,1919.18 8606.72,1921.54C8606.72,1923.93 8605.9,1925.93 8604.27,1927.55C8602.63,1929.19 8600.64,1930.01 8598.28,1930.01C8595.92,1930.01 8593.93,1929.19 8592.29,1927.55C8590.66,1925.93 8589.84,1923.93 8589.84,1921.54C8589.84,1919.18 8590.66,1917.17 8592.29,1915.54C8593.93,1913.9 8595.9,1913.08 8598.2,1913.08C8600.63,1913.08 8602.65,1913.9 8604.27,1915.54L8604.27,1915.54ZM8575.78,1898.77C8575.19,1899.39 8574.89,1900.11 8574.89,1900.95C8574.89,1901.85 8575.2,1902.6 8575.81,1903.22C8576.4,1903.83 8577.15,1904.14 8578.04,1904.14C8578.89,1904.14 8579.63,1903.83 8580.24,1903.22C8580.87,1902.56 8581.18,1901.81 8581.18,1900.95C8581.18,1900.15 8580.87,1899.43 8580.24,1898.8C8579.61,1898.15 8578.88,1897.82 8578.07,1897.82C8577.17,1897.82 8576.41,1898.14 8575.78,1898.77L8575.78,1898.77ZM8699.19,1871.31L8714.47,1854.18L8711.16,1873.4L8730.72,1870.08L8716.92,1887.68L8734.57,1891.96L8733.63,1895.84L8709.95,1890.1L8721.2,1875.74L8706.27,1878.28L8708.17,1867.24L8699.18,1877.31L8690.21,1867.2L8692.1,1878.21L8677.17,1875.68L8688.42,1890.03L8664.75,1895.77L8663.8,1891.89L8681.45,1887.61L8667.65,1870.01L8687.21,1873.33L8683.9,1854.08C8689,1859.83 8694.09,1865.57 8699.19,1871.31ZM8703.77,1881.64C8705.37,1881.64 8706.67,1882.94 8706.67,1884.55C8706.67,1886.15 8705.37,1887.45 8703.77,1887.45C8702.17,1887.45 8700.87,1886.15 8700.87,1884.55C8700.87,1882.94 8702.17,1881.64 8703.77,1881.64ZM8694.6,1881.64C8696.2,1881.64 8697.51,1882.94 8697.51,1884.55C8697.51,1886.15 8696.2,1887.45 8694.6,1887.45C8693,1887.45 8691.7,1886.15 8691.7,1884.55C8691.7,1882.94 8693,1881.64 8694.6,1881.64Z"/>
            </g>
        </g>
    </g>
</svg>
