<svg width="501" height="193" viewBox="0 0 501 193" version="1.1" xmlns="http://www.w3.org/2000/svg" xmlns:xlink="http://www.w3.org/1999/xlink">
<title>Vector</title>
<desc>Created using Figma</desc>
<g id="Canvas" transform="translate(374 138)">
<g id="Vector">
<use xlink:href="#path0_fill" transform="matrix(1 0 0 1 -374 -138)"/>
</g>
</g>
<defs>
<path id="path0_fill" fill-rule="evenodd" d="M 15.6336 107.741C 17.5593 107.721 18.4925 108.654 18.4722 110.581L 18.4722 180.197C 18.4722 185.635 15.8978 189.368 10.7897 191.417C 8.07349 192.472 5.25654 193 2.31735 193C 0.7768 193 0.00526093 192.067 0.00526093 190.22L 0.00526093 182.794C -0.0758204 181.09 0.714564 180.116 2.37673 179.852C 4.60647 179.324 5.72118 177.843 5.76172 175.429L 5.76172 110.581C 5.72118 108.654 6.67515 107.721 8.58056 107.741L 15.6336 107.741ZM 234.919 165.913C 232.994 165.953 232.06 164.999 232.101 163.072L 232.101 160.921C 226.587 164.858 220.688 166.805 214.364 166.805C 206.134 166.805 199.1 163.883 193.262 158.02C 187.424 152.176 184.507 145.115 184.507 136.877C 184.507 128.64 187.424 121.599 193.262 115.735C 199.1 109.891 206.113 106.949 214.303 106.949C 220.546 106.949 226.486 108.958 232.101 112.955L 232.101 110.683C 232.06 108.776 232.994 107.822 234.919 107.862L 241.284 107.862C 243.209 107.822 244.142 108.776 244.122 110.683L 244.122 163.072C 244.142 164.999 243.209 165.933 241.284 165.913L 234.919 165.913ZM 73.7703 165.913C 71.8648 165.953 70.9109 164.999 70.9514 163.072L 70.9514 160.921C 65.4582 164.858 59.559 166.805 53.2347 166.805C 44.9846 166.805 37.9525 163.883 32.1349 158.02C 26.2971 152.176 23.3775 145.115 23.3775 136.877C 23.3775 128.64 26.2971 121.599 32.1349 115.735C 37.9525 109.891 44.9658 106.949 53.1753 106.949C 59.4185 106.949 65.3365 108.958 70.9514 112.955L 70.9514 110.683C 70.9109 108.776 71.8648 107.822 73.7703 107.862L 80.1542 107.862C 82.0799 107.822 83.0136 108.776 82.9731 110.683L 82.9731 163.072C 83.0136 164.999 82.0799 165.933 80.1542 165.913L 73.7703 165.913ZM 253.933 165.913C 252.007 165.953 251.073 164.999 251.114 163.072L 251.114 87.5723C 251.073 85.6447 252.007 84.691 253.933 84.7316L 261.108 84.7316C 263.034 84.691 263.966 85.6447 263.925 87.5723L 263.925 163.072C 263.966 164.999 263.034 165.933 261.108 165.913L 253.933 165.913ZM 92.3362 165.913C 90.4308 165.953 89.4788 164.999 89.5194 163.072L 89.5194 110.683C 89.4788 108.776 90.4308 107.822 92.3362 107.862L 98.8429 107.862C 100.728 107.781 101.662 108.654 101.662 110.46L 101.662 110.987C 105.533 108.289 109.971 106.949 114.978 106.949C 122.458 106.949 128.804 109.547 133.993 114.721C 139.223 109.547 145.607 106.949 153.127 106.949C 160.81 106.949 167.013 109.323 171.757 114.092C 176.338 118.677 178.647 124.521 178.647 131.663L 178.647 163.072C 178.668 164.999 177.736 165.933 175.811 165.913L 168.756 165.913C 166.85 165.953 165.898 164.999 165.939 163.072L 165.939 132.454C 165.939 129.025 164.681 126.042 162.168 123.506C 159.594 120.97 156.614 119.712 153.189 119.712C 150.067 119.712 147.269 120.706 144.776 122.715C 141.837 125.089 140.377 128.031 140.377 131.561L 140.377 163.072C 140.418 164.999 139.466 165.933 137.56 165.913L 130.505 165.913C 128.58 165.953 127.628 164.999 127.669 163.072L 127.669 132.454C 127.669 128.984 126.39 125.982 123.836 123.445C 121.323 120.95 118.263 119.712 114.695 119.712C 110.742 119.712 107.602 120.909 105.27 123.344C 103.243 125.515 102.23 128.335 102.23 131.785L 102.23 163.072C 102.27 164.999 101.316 165.933 99.411 165.913L 92.3362 165.913ZM 407.358 116.587C 404.459 120.95 401.48 125.454 398.359 129.877C 398.055 129.958 397.729 130.08 397.405 130.243C 397.871 129.999 398.176 130.222 396.839 130.344C 395.947 130.425 395.054 130.445 394.162 130.506C 390.939 130.669 387.676 130.73 384.433 130.79C 382.487 130.831 380.541 130.851 378.595 130.871C 379.791 129.39 380.945 127.848 382.04 126.266C 387.269 118.535 373.852 116.121 369.798 122.106C 367.548 125.434 364.912 128.518 361.993 131.318C 361.04 131.703 360.351 132.393 359.885 133.266C 345.006 146.393 323.681 153.15 305.094 151.608C 299.154 151.101 291.858 149.782 287.074 145.704C 279.878 139.535 287.886 134.017 293.46 131.318C 303.453 126.469 323.561 121.011 332.055 131.561C 336.555 137.121 349.386 130.08 344.379 123.871C 331.872 108.37 305.298 113.462 289.913 120.483C 281.926 124.115 272.581 129.411 270.23 139.008C 267.919 148.402 275.115 155.139 282.493 158.669C 300.088 167.069 321.474 164.107 339.23 157.776C 347.703 154.773 355.911 150.634 363.29 145.318C 363.979 145.703 364.771 145.927 365.602 145.927C 372.392 145.927 379.163 145.866 385.953 145.724C 384.068 147.794 382.143 149.802 380.116 151.689C 374.926 156.538 381.635 170.031 387.392 164.655C 398.723 154.063 408.007 140.185 416.642 127.199C 420.554 121.295 412.182 109.323 407.358 116.587ZM 490.163 115.005C 473.359 120.503 456.535 125.941 439.751 131.48C 437.744 132.15 435.736 132.84 433.709 133.55C 435.169 130.73 436.588 127.869 437.906 124.967C 440.946 118.211 427.223 113.219 424.081 120.179C 418.892 131.663 412.182 142.193 404.925 152.339C 400.283 158.872 413.156 165.71 417.352 159.846C 419.967 156.173 423.23 153.333 426.858 151.02C 445.851 154.672 464.702 158.791 483.554 163.255C 491.175 165.04 493.162 150.086 486.412 148.504C 475.081 145.805 463.73 143.269 452.338 140.854C 467.399 135.944 482.46 131.013 497.521 126.083C 506.136 123.263 496.852 112.813 490.163 115.005ZM 226.445 124.703C 229.749 128.011 231.412 132.089 231.412 136.877C 231.412 141.727 229.749 145.785 226.445 149.072C 223.141 152.399 219.086 154.063 214.303 154.063C 209.539 154.063 205.486 152.399 202.182 149.072C 198.858 145.785 197.215 141.727 197.215 136.877C 197.215 132.089 198.858 128.011 202.182 124.703C 205.486 121.376 209.48 119.712 214.142 119.712C 219.068 119.712 223.182 121.376 226.445 124.703ZM 65.3157 124.703C 68.6198 128.011 70.2823 132.089 70.2823 136.877C 70.2823 141.727 68.6198 145.785 65.3157 149.072C 61.9914 152.399 57.9591 154.063 53.1753 154.063C 48.3915 154.063 44.3572 152.399 41.0329 149.072C 37.7288 145.785 36.0663 141.727 36.0663 136.877C 36.0663 132.089 37.7288 128.011 41.0329 124.703C 44.3572 121.376 48.3508 119.712 53.013 119.712C 57.9387 119.712 62.0319 121.376 65.3157 124.703ZM 7.56704 90.6767C 6.37109 91.9347 5.76172 93.3955 5.76172 95.0999C 5.76172 96.926 6.38994 98.4478 7.62643 99.7058C 8.82238 100.943 10.3436 101.573 12.1477 101.573C 13.8706 101.573 15.371 100.943 16.6075 99.7058C 17.8846 98.3666 18.5118 96.8448 18.5118 95.0999C 18.5118 93.4766 17.8846 92.0159 16.6075 90.7377C 15.3305 89.4188 13.8509 88.749 12.209 88.749C 10.3847 88.749 8.84408 89.3985 7.56704 90.6767ZM 257.724 34.9601L 288.695 0.203011L 281.987 39.2006L 321.634 32.4642L 293.662 68.175L 329.44 76.859L 327.533 84.7316L 279.534 73.0851L 302.338 43.9485L 272.073 49.1022L 275.925 26.7018L 257.702 47.1341L 239.52 26.6206L 243.35 48.9601L 213.087 43.8268L 235.891 72.9432L 187.912 84.5897L 185.986 76.7171L 221.763 68.0329L 193.791 32.3222L 233.439 39.0585L 226.73 -8.91657e-05C 237.068 11.6667 247.386 23.3135 257.724 34.9601ZM 267.005 55.9197C 270.249 55.9197 272.885 58.5575 272.885 61.8242C 272.885 65.0706 270.249 67.7081 267.005 67.7081C 263.762 67.7081 261.128 65.0706 261.128 61.8242C 261.128 58.5575 263.762 55.9197 267.005 55.9197ZM 248.418 55.9197C 251.661 55.9197 254.317 58.5575 254.317 61.8242C 254.317 65.0706 251.661 67.7081 248.418 67.7081C 245.175 67.7081 242.541 65.0706 242.541 61.8242C 242.541 58.5575 245.175 55.9197 248.418 55.9197Z"/>
</defs>
</svg>
